<?xml version="1.0" encoding="UTF-8"?>
<svg width="181px" height="40px" viewBox="0 0 181 40" version="1.1" xmlns="http://www.w3.org/2000/svg" xmlns:xlink="http://www.w3.org/1999/xlink">
    <!-- Generator: sketchtool 55.2 (78181) - https://sketchapp.com -->
    <title>429FD009-E88C-4DCF-BA05-C3E06FCDEEDD@1.5x</title>
    <desc>Created with sketchtool.</desc>
    <defs>
        <polygon id="path-1" points="0.0259783877 0.183362832 35.2817054 0.183362832 35.2817054 31.5158938 0.0259783877 31.5158938"></polygon>
    </defs>
    <g id="Page-1" stroke="none" stroke-width="1" fill="none" fill-rule="evenodd">
        <g id="Desktop-HD_v1-Copy" transform="translate(-221.000000, -20.000000)">
            <g id="first_screen" transform="translate(114.000000, 20.000000)">
                <g id="logo" transform="translate(107.000000, 0.000000)">
                    <polygon id="Fill-1" fill="#2C3144" points="0 10.6930693 0 40 6.29872609 40 6.29872609 21.9128599 14.0728965 33.718556 17.7297869 33.718556 23.489088 24.9999004 24.6997817 23.1680185 21.4451563 17.5508833 20.2344626 19.3877095 15.9208347 25.9326168 5.837982 10.6930693"></polygon>
                    <g id="Group-19" transform="translate(18.574236, 0.000000)">
                        <path d="M64.8356657,16.1629027 L60.1416889,16.1629027 L60.1416889,34.4588319 L64.8356657,34.4588319 C70.6613302,34.4588319 73.8043183,31.3533451 73.8043183,25.3105133 C73.8043183,19.2676814 70.6613302,16.1629027 64.8356657,16.1629027 L64.8356657,16.1629027 Z M64.8356657,10.6234336 C75.271871,10.6234336 80.2168625,16.7919292 80.2168625,25.3105133 C80.2168625,33.8290973 75.271871,39.9975929 64.8356657,39.9975929 L53.8550057,39.9975929 L53.8550057,10.6234336 L64.8356657,10.6234336 Z" id="Fill-2" fill="#2C3144"></path>
                        <path d="M94.4945135,10.623469 C97.8390205,10.623469 101.224185,11.4309027 103.642412,12.8025841 L103.642412,18.4510796 C101.264489,16.7565664 98.0808432,15.9094867 94.9375016,15.9498407 C91.875121,15.9901947 90.3435772,16.8372743 90.3435772,18.5724956 C90.3435772,23.4546195 105.778159,21.6386903 105.778159,31.6854159 C105.778159,38.0206372 100.700236,39.9976283 94.7762864,39.9976283 C90.8675264,39.9976283 87.2401858,39.0694867 84.3390204,37.4556814 L84.3390204,31.6854159 C87.5629696,33.824177 91.1089956,34.6716106 94.3332983,34.6716106 C97.5975513,34.6716106 99.612387,33.9859469 99.612387,31.9678938 C99.612387,26.6825841 84.1781588,28.6595752 84.1781588,18.6532035 C84.1781588,13.2057699 88.9332983,10.623469 94.4945135,10.623469" id="Fill-4" fill="#2C3144"></path>
                        <polygon id="Fill-6" fill="#2C3144" points="131.190897 10.623469 131.190897 16.1629381 116.815881 16.1629381 116.815881 22.4153274 129.934055 22.4153274 129.934055 27.9123186 116.815881 27.9123186 116.815881 34.4585133 131.442619 34.4585133 131.442619 39.9976283 110.529551 39.9976283 110.529551 10.623469"></polygon>
                        <path d="M136.524396,39.9976283 L136.524396,10.623469 L142.43385,10.623469 L156.096479,29.8008142 C156.013043,28.583823 155.970972,27.1151504 155.970972,25.7721416 L155.970972,10.623469 L162.257301,10.623469 L162.257301,39.9976283 L156.347847,39.9976283 L142.685218,20.8202832 C142.769008,22.0376283 142.810725,23.5059469 142.810725,24.8489558 L142.810725,39.9976283 L136.524396,39.9976283 Z" id="Fill-8" fill="#2C3144"></path>
                        <path d="M35.2762338,16.0109735 C35.3105274,15.4676106 35.1832523,14.9143363 34.9046612,14.4297345 L32.7091656,10.6258407 L30.4450829,10.6258407 L33.2030637,15.4088496 C33.3105405,15.5950442 33.3448341,15.8102655 33.3009949,16.0109735 L35.2762338,16.0109735 Z" id="Fill-10" fill="#2C3144"></path>
                        <path d="M49.6711547,26.6444602 L42.7378431,38.6635752 C42.2633898,39.4908319 41.3834239,39.9998584 40.4348708,39.9998584 L26.5678942,39.9998584 C25.6193411,39.9998584 24.7390216,39.4908319 24.2649218,38.6635752 L20.142976,31.5159646 L19.0084598,29.5527788 L17.3312567,26.6444602 C16.8571569,25.8172035 16.8571569,24.8037522 17.3312567,23.9764956 L24.2649218,11.9573805 C24.7390216,11.1301239 25.6193411,10.6256991 26.5678942,10.6256991 L30.4451889,10.6256991 L33.2031698,15.4090619 C33.3106466,15.5949027 33.3449401,15.8104779 33.3007474,16.0108319 L28.1372669,16.0108319 L22.7733282,25.3127788 L25.2085253,29.5329558 L26.2058672,31.2660531 L28.1372669,34.6147257 L38.8651444,34.6147257 L44.2290832,25.3127788 L38.8651444,16.0108319 L35.2763399,16.0108319 C35.3102799,15.467469 35.1833584,14.9145487 34.9044138,14.4299469 L32.7092717,10.6256991 L40.4348708,10.6256991 C41.3834239,10.6256991 42.2633898,11.1301239 42.7378431,11.9573805 L49.6711547,23.9764956 C50.145608,24.8037522 50.145608,25.8172035 49.6711547,26.6444602" id="Fill-12" fill="#2C3144"></path>
                        <g id="Group-16">
                            <mask id="mask-2" fill="white">
                                <use xlink:href="#path-1"></use>
                            </mask>
                            <g id="Clip-15"></g>
                            <path d="M13.1360216,29.552708 L13.1360216,31.5158938 L20.1428699,31.5158938 L19.0083537,29.552708 L13.1360216,29.552708 Z M34.9046612,14.4298761 L32.7091656,10.6256283 L27.506442,1.60297345 C26.9980487,0.726513274 26.0639908,0.183150442 25.0472041,0.183150442 L10.2610184,0.183150442 C9.24387812,0.183150442 8.31017378,0.726513274 7.80142689,1.60297345 L0.403561209,14.4298761 C-0.0998825529,15.3059823 -0.0998825529,16.3930619 0.403561209,17.2691681 L1.59641181,19.3399646 L4.84334124,24.9654513 L6.85287379,28.451115 L6.85287379,24.5247434 L6.05104061,23.1293451 L2.80446471,17.4992566 L2.1051587,16.2900531 C1.94853961,16.0160708 1.94853961,15.6829735 2.1051587,15.4089912 L9.49807479,2.58704425 C9.65469388,2.31270796 9.94813372,2.14633628 10.2610184,2.14633628 L25.0472041,2.14633628 C25.3600887,2.14633628 25.6535286,2.31270796 25.8097941,2.58704425 L30.4450829,10.6256283 L33.2030637,15.4089912 C33.3105405,15.5948319 33.3448341,15.8104071 33.3009949,16.011115 C33.2861461,16.1088142 33.2518525,16.2019115 33.2030637,16.2900531 L25.8097941,29.112 C25.6828725,29.3371327 25.4580199,29.4939469 25.2084192,29.532885 L26.2061147,31.2659823 C26.743852,31.0259823 27.2034565,30.6199646 27.506442,30.0960708 L34.9046612,17.2691681 C35.1295139,16.8776637 35.2518394,16.4468673 35.2762338,16.011115 C35.3105274,15.4673982 35.1832523,14.9144779 34.9046612,14.4298761 L34.9046612,14.4298761 Z" id="Fill-14" fill="#F17900" mask="url(#mask-2)"></path>
                        </g>
                        <polygon id="Fill-17" fill="#2C3144" points="13.1360216 10.6257345 13.1360216 39.9998938 6.85287379 39.9998938 6.85287379 21.9103363 6.05104061 23.1294513 2.80446471 17.4993628 7.31247835 10.6257345"></polygon>
                    </g>
                </g>
            </g>
        </g>
    </g>
</svg>